<?xml version="1.0" encoding="utf-8"?>
<svg version="1.1" id="Ebene_1"
	xmlns="http://www.w3.org/2000/svg"
	xmlns:xlink="http://www.w3.org/1999/xlink" x="0px" y="0px" width="400px" height="75.3px" viewBox="0 0 400 75.3" enable-background="new 0 0 400 75.3" xml:space="preserve">
	<path fill-rule="evenodd" clip-rule="evenodd" fill="#FFF" d="M317,21.4l0,53.9h-24.1l0-53.8l-30,0l0-21.2l74.8-0.1l-9.1,21.3
	L317,21.4z M234.3,26.8c0,9.4-14.3,7.8-14.3,7.8V20.5C220,20.5,234.3,17.7,234.3,26.8 M100.1,75.2H71.4L49.7,27.5L38.1,53.1h17.8
	l9.6,22H0L37,0l25.6,0L100.1,75.2z M128.3,35.6V0.2l31.2,0c15.3,0.9,31.4,10,35.9,25.5l0-25.5l42.4,0c8.1,0.7,16.6,5.3,19.4,13
	c2.3,7.5,2.1,14.9-2.7,20.6c-1.5,1.6-6.1,5-8.3,5.9L263,63l0.1-36.5h23.6v48.8h-45.5l-21.3-37.3l-0.1,37.3h-24.5l0-27.5
	c-3.1,11.7-14.8,23.3-26.3,25.9c-7,1.7-13,1.6-13,1.6V52.7c6.6-0.4,13.5-3.6,16.2-9.9c1.9-3.8,0.9-9.7-1.2-13.1
	c-4.3-6.6-11.6-9.1-19.4-8.3l-0.1,53.8l-24.3,0l-21.5-36.3v36.3h-0.9L82.7,30l0-29.9H106L128.3,35.6z M358.2,52.8h31.3L400,75.3
	h-80.2l24.7-53.8H334l9.1-21.3l36.1,0L358.2,52.8z"/>
</svg>
