<?xml version="1.0" encoding="UTF-8" standalone="no"?>
<!-- Created with Inkscape (http://www.inkscape.org/) -->
<!-- http://www.andritz.com/andritz_geschaeftsbericht_2009.pdf -->
<svg xmlns:svg="http://www.w3.org/2000/svg"
   xmlns="http://www.w3.org/2000/svg" version="1.0" width="250" height="47.048199">
   <path d="M 223.90429,33.005505 L 243.45247,33.005505 L 250.00004,47.048195 L 199.88809,47.048195 L 215.33481,13.404298 L 208.72961,13.404298 L 214.43337,0.060168649 L 236.99943,0.076307022 L 223.90429,33.005505 z M 80.182854,22.236599 L 80.182854,0.12011118 L 99.710286,0.143166 C 109.28265,0.70109262 119.33224,6.3656616 122.15185,16.062519 L 122.14262,0.12011118 L 148.66258,0.143166 C 153.71389,0.58120756 159.06031,3.453838 160.80325,8.2515458 C 162.26723,12.952423 162.09201,17.57722 159.12486,21.153023 C 158.16117,22.135158 155.29776,24.309227 153.96519,24.862543 L 164.33755,39.354802 L 164.41133,16.512087 L 179.1618,16.512087 L 179.1618,46.985947 L 150.74213,46.985947 L 137.45564,23.691358 L 137.41875,46.985947 L 122.11496,46.985947 L 122.08499,29.807802 C 120.17144,37.116179 112.80542,44.373836 105.66996,46.003812 C 101.3149,47.038973 97.540827,46.985947 97.540827,46.985947 L 97.540827,32.959395 C 101.65842,32.698876 105.97197,30.718467 107.63653,26.792231 C 108.82616,24.44064 108.22904,20.758785 106.8642,18.600854 C 104.18061,14.480958 99.5904,12.910925 94.716612,13.406603 L 94.647447,47.006697 L 79.468154,46.985947 L 66.011057,24.306922 L 66.011057,46.988253 L 65.448519,46.988253 L 51.687098,18.736878 L 51.691709,0.071696058 L 66.216244,0.071696058 L 80.182854,22.236599 z M 62.543612,46.988253 L 44.634628,46.988253 L 31.062256,17.176066 L 23.818432,33.215304 L 34.949299,33.215304 L 40.966607,46.988253 L -0.022555983,46.988253 L 23.133704,-0.0020793623 L 39.159109,0.023280939 L 62.543612,46.988253 z M 146.42396,16.735719 C 146.42396,22.580116 137.49252,21.607202 137.49252,21.607202 L 137.49252,12.8164 C 137.49252,12.8164 146.42396,11.07115 146.42396,16.735719 M 198.14053,13.353577 L 198.13592,47.048195 L 183.06729,47.048195 L 183.08804,13.404298 L 164.3168,13.38816 L 164.30528,0.11088925 L 211.08812,0.076307022 L 205.38435,13.404298 L 198.14053,13.353577 z" style="fill:#006db0;fill-opacity:1;fill-rule:evenodd;stroke:none" />
</svg>
